<?xml version="1.0" encoding="UTF-8" standalone="no"?>
<svg width="200" height="200" viewBox="0 0 200 200" xmlns="http://www.w3.org/2000/svg">
  <!-- Fond avec dégradé -->
  <defs>
    <linearGradient id="grad1" x1="0%" y1="0%" x2="100%" y2="100%">
      <stop offset="0%" style="stop-color:#8B4513;stop-opacity:1" />
      <stop offset="100%" style="stop-color:#D2B48C;stop-opacity:1" />
    </linearGradient>
  </defs>
  
  <!-- Cercle de fond avec dégradé -->
  <circle cx="100" cy="100" r="90" fill="url(#grad1)" />
  <circle cx="100" cy="100" r="85" fill="#FFFFFF" />
  
  <!-- Bâtiment universitaire stylisé avec ombre -->
  <g filter="url(#shadow)">
    <defs>
      <filter id="shadow" x="-20%" y="-20%" width="140%" height="140%">
        <feGaussianBlur in="SourceAlpha" stdDeviation="2"/>
        <feOffset dx="2" dy="2" result="offsetblur"/>
        <feComponentTransfer>
          <feFuncA type="linear" slope="0.3"/>
        </feComponentTransfer>
        <feMerge> 
          <feMergeNode/>
          <feMergeNode in="SourceGraphic"/>
        </feMerge>
      </filter>
    </defs>
    
    <!-- Structure principale -->
    <path d="M60 70 L100 40 L140 70 L140 130 L60 130 Z" fill="#8B4513"/>
    
    <!-- Colonnes -->
    <rect x="70" y="70" width="10" height="60" fill="#D2B48C" />
    <rect x="95" y="70" width="10" height="60" fill="#D2B48C" />
    <rect x="120" y="70" width="10" height="60" fill="#D2B48C" />
    
    <!-- Détails architecturaux -->
    <path d="M58 70 L142 70" stroke="#D2B48C" stroke-width="2"/>
    <path d="M100 35 L100 45" stroke="#D2B48C" stroke-width="2"/>
  </g>
  
  <!-- Urne de vote stylisée avec effet 3D -->
  <g transform="translate(85,110)">
    <rect x="0" y="0" width="30" height="30" fill="#8B4513" rx="3"/>
    <rect x="2" y="2" width="26" height="26" fill="#FFFFFF" rx="2"/>
    <rect x="10" y="-5" width="10" height="5" fill="#8B4513"/>
    <path d="M 5 15 L 25 15" stroke="#8B4513" stroke-width="2" stroke-linecap="round"/>
    <!-- Effet de brillance -->
    <path d="M 5 5 L 20 5" stroke="#D2B48C" stroke-width="1" opacity="0.5"/>
  </g>
  
  <!-- Texte stylisé -->
  <g transform="translate(100,160)">
    <text text-anchor="middle" font-family="Montserrat, sans-serif" font-weight="bold">
      <tspan x="0" y="0" font-size="20" fill="#8B4513">CAMPUS</tspan>
      <tspan x="0" y="20" font-size="22" fill="#8B4513">ELECT</tspan>
    </text>
  </g>
  
  <!-- Effet de brillance global -->
  <circle cx="70" cy="70" r="10" fill="#FFFFFF" opacity="0.1"/>
</svg> 